<?xml version="1.0" standalone="no"?>
<!DOCTYPE svg PUBLIC "-//W3C//DTD SVG 20010904//EN"
 "http://www.w3.org/TR/2001/REC-SVG-20010904/DTD/svg10.dtd">
<svg version="1.0" xmlns="http://www.w3.org/2000/svg"
 width="480.000000pt" height="159.000000pt" viewBox="0 0 480.000000 159.000000"
 preserveAspectRatio="xMidYMid meet">

<g transform="translate(0.000000,159.000000) scale(0.100000,-0.100000)"
fill="#000000" stroke="none">
<path d="M2390 1395 c-16 -20 -4 -65 17 -65 15 0 15 1 -1 13 -24 17 -13 54 17
60 22 4 22 4 1 6 -12 0 -27 -6 -34 -14z"/>
<path d="M320 1261 c0 -15 10 -19 51 -24 106 -13 208 -78 298 -190 51 -64 141
-204 141 -219 0 -4 -112 -8 -250 -8 -157 0 -250 -4 -250 -10 0 -6 98 -11 261
-12 l261 -3 63 -99 c156 -249 272 -339 450 -353 180 -14 321 84 488 340 l77
117 504 0 504 0 68 -111 c119 -193 237 -300 369 -334 229 -59 426 50 599 333
l68 112 209 0 c133 0 209 4 209 10 0 6 -73 10 -200 10 -110 0 -200 2 -200 5 0
25 126 227 180 288 46 52 116 99 170 113 26 6 45 17 45 25 0 46 -142 -10 -219
-87 -52 -51 -144 -184 -197 -285 l-32 -59 -517 0 -516 0 -24 43 c-90 163 -201
300 -289 356 -114 73 -271 81 -397 21 -93 -45 -198 -151 -298 -302 l-77 -118
-502 0 -502 0 -58 94 c-132 217 -236 313 -384 351 -78 20 -103 20 -103 -4z
m2216 -36 c69 -20 152 -82 212 -157 50 -63 152 -224 152 -240 0 -4 -218 -8
-485 -8 -313 0 -485 4 -485 10 0 15 81 138 139 210 78 97 149 152 240 185 49
18 166 18 227 0z m-686 -432 c0 -13 -72 -126 -128 -200 -65 -88 -128 -144
-202 -181 -48 -24 -66 -27 -150 -27 -83 1 -102 4 -153 29 -103 50 -215 172
-311 339 l-28 47 486 0 c267 0 486 -3 486 -7z m2120 2 c0 -3 -25 -45 -54 -93
-151 -241 -287 -332 -477 -319 -131 9 -235 71 -333 200 -49 66 -136 200 -136
212 0 3 225 5 500 5 275 0 500 -2 500 -5z"/>
<path d="M151 825 c-22 -57 -22 -56 0 -42 16 10 21 9 29 -3 18 -29 18 -4 1 35
l-19 40 -11 -30z m19 -10 c0 -8 -4 -15 -10 -15 -5 0 -7 7 -4 15 4 8 8 15 10
15 2 0 4 -7 4 -15z"/>
<path d="M4575 797 c0 -54 -27 -59 -36 -7 l-6 35 -2 -31 c-1 -39 22 -62 44
-44 15 13 21 75 8 83 -5 3 -8 -14 -8 -36z"/>
<path d="M1332 168 l1 -43 4 38 c2 20 9 37 14 37 6 0 7 -9 4 -20 -4 -12 -2
-20 5 -20 7 0 9 -7 6 -16 -3 -8 -2 -12 3 -9 5 3 8 18 6 33 -2 15 -4 30 -4 35
-1 4 -10 7 -21 7 -17 0 -20 -6 -18 -42z"/>
</g>
</svg>
